%TF.GenerationSoftware,KiCad,Pcbnew,6.0.2+dfsg-1*%
%TF.CreationDate,2022-10-15T23:12:03-07:00*%
%TF.ProjectId,CX40-Replacement,43583430-2d52-4657-906c-6163656d656e,rev?*%
%TF.SameCoordinates,Original*%
%TF.FileFunction,Profile,NP*%
%FSLAX46Y46*%
G04 Gerber Fmt 4.6, Leading zero omitted, Abs format (unit mm)*
G04 Created by KiCad (PCBNEW 6.0.2+dfsg-1) date 2022-10-15 23:12:03*
%MOMM*%
%LPD*%
G01*
G04 APERTURE LIST*
%TA.AperFunction,Profile*%
%ADD10C,0.150000*%
%TD*%
%TA.AperFunction,Profile*%
%ADD11C,0.100000*%
%TD*%
%TA.AperFunction,Profile*%
%ADD12C,0.200000*%
%TD*%
%TA.AperFunction,Profile*%
%ADD13C,0.120000*%
%TD*%
G04 APERTURE END LIST*
D10*
X128500000Y-97000000D02*
G75*
G03*
X128500000Y-97000000I-2500000J0D01*
G01*
D11*
X143000000Y-134000000D02*
X194000000Y-134000000D01*
X174500000Y-93000000D02*
G75*
G03*
X174500000Y-93000000I-2500000J0D01*
G01*
D12*
X194000000Y-74000000D02*
X194000000Y-134000000D01*
D10*
X156324555Y-108000000D02*
G75*
G03*
X156324555Y-108000000I-6324555J0D01*
G01*
X152500000Y-81000000D02*
G75*
G03*
X152500000Y-81000000I-2500000J0D01*
G01*
D11*
X192500000Y-93000000D02*
G75*
G03*
X192500000Y-93000000I-2500000J0D01*
G01*
X113000000Y-134000000D02*
X114000000Y-134000000D01*
D12*
X113000000Y-74000000D02*
X113000000Y-134000000D01*
D10*
X169500000Y-129000000D02*
G75*
G03*
X169500000Y-129000000I-2500000J0D01*
G01*
D12*
X194000000Y-74000000D02*
X113000000Y-74000000D01*
D10*
X128500000Y-121000000D02*
G75*
G03*
X128500000Y-121000000I-2500000J0D01*
G01*
D13*
%TO.C,H0*%
X117000000Y-134000000D02*
X114000000Y-134000000D01*
X127000000Y-129000000D02*
X128000000Y-129000000D01*
X137000000Y-129000000D02*
X138000000Y-129000000D01*
X118000000Y-129000000D02*
X117000000Y-129000000D01*
X142000000Y-134000000D02*
X142000000Y-129000000D01*
X127000000Y-134000000D02*
X127000000Y-129000000D01*
X123000000Y-129000000D02*
X123000000Y-134000000D01*
X122000000Y-134000000D02*
X122000000Y-129000000D01*
X133000000Y-129000000D02*
X133000000Y-134000000D01*
X122000000Y-129000000D02*
X122750000Y-129000000D01*
X118000000Y-134000000D02*
X119000000Y-134000000D01*
X137000000Y-129250000D02*
X137000000Y-129000000D01*
X128000000Y-129000000D02*
X128000000Y-134000000D01*
X123000000Y-134000000D02*
X127000000Y-134000000D01*
X132000000Y-134000000D02*
X132000000Y-129000000D01*
X143000000Y-129000000D02*
X143000000Y-134000000D01*
X137000000Y-134000000D02*
X137000000Y-129250000D01*
X142000000Y-129000000D02*
X143000000Y-129000000D01*
X138000000Y-129000000D02*
X138000000Y-134000000D01*
X128000000Y-134000000D02*
X132000000Y-134000000D01*
X118000000Y-134000000D02*
X118000000Y-129000000D01*
X132000000Y-129000000D02*
X133000000Y-129000000D01*
X122750000Y-129000000D02*
X123000000Y-129000000D01*
X117000000Y-134000000D02*
X117000000Y-129000000D01*
X119000000Y-134000000D02*
X122000000Y-134000000D01*
X133000000Y-134000000D02*
X137000000Y-134000000D01*
X138000000Y-134000000D02*
X142000000Y-134000000D01*
%TD*%
M02*
