%TF.GenerationSoftware,KiCad,Pcbnew,6.0.2+dfsg-1*%
%TF.CreationDate,2022-10-15T23:12:02-07:00*%
%TF.ProjectId,CX40-Replacement,43583430-2d52-4657-906c-6163656d656e,rev?*%
%TF.SameCoordinates,Original*%
%TF.FileFunction,Legend,Top*%
%TF.FilePolarity,Positive*%
%FSLAX46Y46*%
G04 Gerber Fmt 4.6, Leading zero omitted, Abs format (unit mm)*
G04 Created by KiCad (PCBNEW 6.0.2+dfsg-1) date 2022-10-15 23:12:02*
%MOMM*%
%LPD*%
G01*
G04 APERTURE LIST*
%ADD10C,0.150000*%
%ADD11C,0.300000*%
%ADD12C,0.125000*%
%ADD13C,0.120000*%
G04 APERTURE END LIST*
D10*
X181000000Y-77200000D02*
X187000000Y-77200000D01*
X187000000Y-77200000D02*
X187000000Y-82600000D01*
X187000000Y-82600000D02*
X181000000Y-82600000D01*
X181000000Y-82600000D02*
X181000000Y-77200000D01*
X152600000Y-91600000D02*
X147400000Y-91600000D01*
X147400000Y-91600000D02*
X147400000Y-85600000D01*
X147400000Y-85600000D02*
X152600000Y-85600000D01*
X152600000Y-85600000D02*
X152600000Y-91600000D01*
X128000000Y-105000000D02*
X133200000Y-105000000D01*
X133200000Y-105000000D02*
X133200000Y-111000000D01*
X133200000Y-111000000D02*
X128000000Y-111000000D01*
X128000000Y-111000000D02*
X128000000Y-105000000D01*
X147400000Y-124400000D02*
X152800000Y-124400000D01*
X152800000Y-124400000D02*
X152800000Y-130400000D01*
X152800000Y-130400000D02*
X147400000Y-130400000D01*
X147400000Y-130400000D02*
X147400000Y-124400000D01*
X166800000Y-104800000D02*
X172200000Y-104800000D01*
X172200000Y-104800000D02*
X172200000Y-111000000D01*
X172200000Y-111000000D02*
X166800000Y-111000000D01*
X166800000Y-111000000D02*
X166800000Y-104800000D01*
D11*
X183379285Y-86749999D02*
X183307857Y-86678571D01*
X183236428Y-86464285D01*
X183236428Y-86321428D01*
X183307857Y-86107142D01*
X183450714Y-85964285D01*
X183593571Y-85892857D01*
X183879285Y-85821428D01*
X184093571Y-85821428D01*
X184379285Y-85892857D01*
X184522142Y-85964285D01*
X184665000Y-86107142D01*
X184736428Y-86321428D01*
X184736428Y-86464285D01*
X184665000Y-86678571D01*
X184593571Y-86749999D01*
X184736428Y-87249999D02*
X183236428Y-88249999D01*
X184736428Y-88249999D02*
X183236428Y-87249999D01*
X184236428Y-89464285D02*
X183236428Y-89464285D01*
X184807857Y-89107142D02*
X183736428Y-88749999D01*
X183736428Y-89678571D01*
X184736428Y-90535714D02*
X184736428Y-90678571D01*
X184665000Y-90821428D01*
X184593571Y-90892857D01*
X184450714Y-90964285D01*
X184165000Y-91035714D01*
X183807857Y-91035714D01*
X183522142Y-90964285D01*
X183379285Y-90892857D01*
X183307857Y-90821428D01*
X183236428Y-90678571D01*
X183236428Y-90535714D01*
X183307857Y-90392857D01*
X183379285Y-90321428D01*
X183522142Y-90249999D01*
X183807857Y-90178571D01*
X184165000Y-90178571D01*
X184450714Y-90249999D01*
X184593571Y-90321428D01*
X184665000Y-90392857D01*
X184736428Y-90535714D01*
X184736428Y-92607142D02*
X184736428Y-93464285D01*
X183236428Y-93035714D02*
X184736428Y-93035714D01*
X183236428Y-94607142D02*
X184022142Y-94607142D01*
X184165000Y-94535714D01*
X184236428Y-94392857D01*
X184236428Y-94107142D01*
X184165000Y-93964285D01*
X183307857Y-94607142D02*
X183236428Y-94464285D01*
X183236428Y-94107142D01*
X183307857Y-93964285D01*
X183450714Y-93892857D01*
X183593571Y-93892857D01*
X183736428Y-93964285D01*
X183807857Y-94107142D01*
X183807857Y-94464285D01*
X183879285Y-94607142D01*
X183307857Y-95964285D02*
X183236428Y-95821428D01*
X183236428Y-95535714D01*
X183307857Y-95392857D01*
X183379285Y-95321428D01*
X183522142Y-95249999D01*
X183950714Y-95249999D01*
X184093571Y-95321428D01*
X184165000Y-95392857D01*
X184236428Y-95535714D01*
X184236428Y-95821428D01*
X184165000Y-95964285D01*
X184236428Y-96392857D02*
X184236428Y-96964285D01*
X184736428Y-96607142D02*
X183450714Y-96607142D01*
X183307857Y-96678571D01*
X183236428Y-96821428D01*
X183236428Y-96964285D01*
X183236428Y-97464285D02*
X184236428Y-97464285D01*
X184736428Y-97464285D02*
X184665000Y-97392857D01*
X184593571Y-97464285D01*
X184665000Y-97535714D01*
X184736428Y-97464285D01*
X184593571Y-97464285D01*
X183236428Y-98392857D02*
X183307857Y-98249999D01*
X183450714Y-98178571D01*
X184736428Y-98178571D01*
X183307857Y-99535714D02*
X183236428Y-99392857D01*
X183236428Y-99107142D01*
X183307857Y-98964285D01*
X183450714Y-98892857D01*
X184022142Y-98892857D01*
X184165000Y-98964285D01*
X184236428Y-99107142D01*
X184236428Y-99392857D01*
X184165000Y-99535714D01*
X184022142Y-99607142D01*
X183879285Y-99607142D01*
X183736428Y-98892857D01*
X184022142Y-101892857D02*
X183950714Y-102107142D01*
X183879285Y-102178571D01*
X183736428Y-102249999D01*
X183522142Y-102249999D01*
X183379285Y-102178571D01*
X183307857Y-102107142D01*
X183236428Y-101964285D01*
X183236428Y-101392857D01*
X184736428Y-101392857D01*
X184736428Y-101892857D01*
X184665000Y-102035714D01*
X184593571Y-102107142D01*
X184450714Y-102178571D01*
X184307857Y-102178571D01*
X184165000Y-102107142D01*
X184093571Y-102035714D01*
X184022142Y-101892857D01*
X184022142Y-101392857D01*
X184236428Y-103535714D02*
X183236428Y-103535714D01*
X184236428Y-102892857D02*
X183450714Y-102892857D01*
X183307857Y-102964285D01*
X183236428Y-103107142D01*
X183236428Y-103321428D01*
X183307857Y-103464285D01*
X183379285Y-103535714D01*
X184236428Y-104035714D02*
X184236428Y-104607142D01*
X184736428Y-104249999D02*
X183450714Y-104249999D01*
X183307857Y-104321428D01*
X183236428Y-104464285D01*
X183236428Y-104607142D01*
X184236428Y-104892857D02*
X184236428Y-105464285D01*
X184736428Y-105107142D02*
X183450714Y-105107142D01*
X183307857Y-105178571D01*
X183236428Y-105321428D01*
X183236428Y-105464285D01*
X183236428Y-106178571D02*
X183307857Y-106035714D01*
X183379285Y-105964285D01*
X183522142Y-105892857D01*
X183950714Y-105892857D01*
X184093571Y-105964285D01*
X184165000Y-106035714D01*
X184236428Y-106178571D01*
X184236428Y-106392857D01*
X184165000Y-106535714D01*
X184093571Y-106607142D01*
X183950714Y-106678571D01*
X183522142Y-106678571D01*
X183379285Y-106607142D01*
X183307857Y-106535714D01*
X183236428Y-106392857D01*
X183236428Y-106178571D01*
X184236428Y-107321428D02*
X183236428Y-107321428D01*
X184093571Y-107321428D02*
X184165000Y-107392857D01*
X184236428Y-107535714D01*
X184236428Y-107750000D01*
X184165000Y-107892857D01*
X184022142Y-107964285D01*
X183236428Y-107964285D01*
X183236428Y-110678571D02*
X183950714Y-110178571D01*
X183236428Y-109821428D02*
X184736428Y-109821428D01*
X184736428Y-110392857D01*
X184665000Y-110535714D01*
X184593571Y-110607142D01*
X184450714Y-110678571D01*
X184236428Y-110678571D01*
X184093571Y-110607142D01*
X184022142Y-110535714D01*
X183950714Y-110392857D01*
X183950714Y-109821428D01*
X183307857Y-111892857D02*
X183236428Y-111750000D01*
X183236428Y-111464285D01*
X183307857Y-111321428D01*
X183450714Y-111250000D01*
X184022142Y-111250000D01*
X184165000Y-111321428D01*
X184236428Y-111464285D01*
X184236428Y-111750000D01*
X184165000Y-111892857D01*
X184022142Y-111964285D01*
X183879285Y-111964285D01*
X183736428Y-111250000D01*
X184236428Y-112607142D02*
X182736428Y-112607142D01*
X184165000Y-112607142D02*
X184236428Y-112750000D01*
X184236428Y-113035714D01*
X184165000Y-113178571D01*
X184093571Y-113250000D01*
X183950714Y-113321428D01*
X183522142Y-113321428D01*
X183379285Y-113250000D01*
X183307857Y-113178571D01*
X183236428Y-113035714D01*
X183236428Y-112750000D01*
X183307857Y-112607142D01*
X183236428Y-114178571D02*
X183307857Y-114035714D01*
X183450714Y-113964285D01*
X184736428Y-113964285D01*
X183236428Y-115392857D02*
X184022142Y-115392857D01*
X184165000Y-115321428D01*
X184236428Y-115178571D01*
X184236428Y-114892857D01*
X184165000Y-114750000D01*
X183307857Y-115392857D02*
X183236428Y-115250000D01*
X183236428Y-114892857D01*
X183307857Y-114750000D01*
X183450714Y-114678571D01*
X183593571Y-114678571D01*
X183736428Y-114750000D01*
X183807857Y-114892857D01*
X183807857Y-115250000D01*
X183879285Y-115392857D01*
X183307857Y-116750000D02*
X183236428Y-116607142D01*
X183236428Y-116321428D01*
X183307857Y-116178571D01*
X183379285Y-116107142D01*
X183522142Y-116035714D01*
X183950714Y-116035714D01*
X184093571Y-116107142D01*
X184165000Y-116178571D01*
X184236428Y-116321428D01*
X184236428Y-116607142D01*
X184165000Y-116750000D01*
X183307857Y-117964285D02*
X183236428Y-117821428D01*
X183236428Y-117535714D01*
X183307857Y-117392857D01*
X183450714Y-117321428D01*
X184022142Y-117321428D01*
X184165000Y-117392857D01*
X184236428Y-117535714D01*
X184236428Y-117821428D01*
X184165000Y-117964285D01*
X184022142Y-118035714D01*
X183879285Y-118035714D01*
X183736428Y-117321428D01*
X183236428Y-118678571D02*
X184236428Y-118678571D01*
X184093571Y-118678571D02*
X184165000Y-118750000D01*
X184236428Y-118892857D01*
X184236428Y-119107142D01*
X184165000Y-119250000D01*
X184022142Y-119321428D01*
X183236428Y-119321428D01*
X184022142Y-119321428D02*
X184165000Y-119392857D01*
X184236428Y-119535714D01*
X184236428Y-119750000D01*
X184165000Y-119892857D01*
X184022142Y-119964285D01*
X183236428Y-119964285D01*
X183307857Y-121250000D02*
X183236428Y-121107142D01*
X183236428Y-120821428D01*
X183307857Y-120678571D01*
X183450714Y-120607142D01*
X184022142Y-120607142D01*
X184165000Y-120678571D01*
X184236428Y-120821428D01*
X184236428Y-121107142D01*
X184165000Y-121250000D01*
X184022142Y-121321428D01*
X183879285Y-121321428D01*
X183736428Y-120607142D01*
X184236428Y-121964285D02*
X183236428Y-121964285D01*
X184093571Y-121964285D02*
X184165000Y-122035714D01*
X184236428Y-122178571D01*
X184236428Y-122392857D01*
X184165000Y-122535714D01*
X184022142Y-122607142D01*
X183236428Y-122607142D01*
X184236428Y-123107142D02*
X184236428Y-123678571D01*
X184736428Y-123321428D02*
X183450714Y-123321428D01*
X183307857Y-123392857D01*
X183236428Y-123535714D01*
X183236428Y-123678571D01*
X184022142Y-125821428D02*
X183950714Y-126035714D01*
X183879285Y-126107142D01*
X183736428Y-126178571D01*
X183522142Y-126178571D01*
X183379285Y-126107142D01*
X183307857Y-126035714D01*
X183236428Y-125892857D01*
X183236428Y-125321428D01*
X184736428Y-125321428D01*
X184736428Y-125821428D01*
X184665000Y-125964285D01*
X184593571Y-126035714D01*
X184450714Y-126107142D01*
X184307857Y-126107142D01*
X184165000Y-126035714D01*
X184093571Y-125964285D01*
X184022142Y-125821428D01*
X184022142Y-125321428D01*
X183236428Y-127035714D02*
X183307857Y-126892857D01*
X183379285Y-126821428D01*
X183522142Y-126750000D01*
X183950714Y-126750000D01*
X184093571Y-126821428D01*
X184165000Y-126892857D01*
X184236428Y-127035714D01*
X184236428Y-127250000D01*
X184165000Y-127392857D01*
X184093571Y-127464285D01*
X183950714Y-127535714D01*
X183522142Y-127535714D01*
X183379285Y-127464285D01*
X183307857Y-127392857D01*
X183236428Y-127250000D01*
X183236428Y-127035714D01*
X183236428Y-128821428D02*
X184022142Y-128821428D01*
X184165000Y-128750000D01*
X184236428Y-128607142D01*
X184236428Y-128321428D01*
X184165000Y-128178571D01*
X183307857Y-128821428D02*
X183236428Y-128678571D01*
X183236428Y-128321428D01*
X183307857Y-128178571D01*
X183450714Y-128107142D01*
X183593571Y-128107142D01*
X183736428Y-128178571D01*
X183807857Y-128321428D01*
X183807857Y-128678571D01*
X183879285Y-128821428D01*
X183236428Y-129535714D02*
X184236428Y-129535714D01*
X183950714Y-129535714D02*
X184093571Y-129607142D01*
X184165000Y-129678571D01*
X184236428Y-129821428D01*
X184236428Y-129964285D01*
X183236428Y-131107142D02*
X184736428Y-131107142D01*
X183307857Y-131107142D02*
X183236428Y-130964285D01*
X183236428Y-130678571D01*
X183307857Y-130535714D01*
X183379285Y-130464285D01*
X183522142Y-130392857D01*
X183950714Y-130392857D01*
X184093571Y-130464285D01*
X184165000Y-130535714D01*
X184236428Y-130678571D01*
X184236428Y-130964285D01*
X184165000Y-131107142D01*
X181250000Y-100285714D02*
X181250000Y-101000000D01*
X180821428Y-100142857D02*
X182321428Y-100642857D01*
X180821428Y-101142857D01*
X180892857Y-101571428D02*
X180821428Y-101714285D01*
X180821428Y-102000000D01*
X180892857Y-102142857D01*
X181035714Y-102214285D01*
X181107142Y-102214285D01*
X181250000Y-102142857D01*
X181321428Y-102000000D01*
X181321428Y-101785714D01*
X181392857Y-101642857D01*
X181535714Y-101571428D01*
X181607142Y-101571428D01*
X181750000Y-101642857D01*
X181821428Y-101785714D01*
X181821428Y-102000000D01*
X181750000Y-102142857D01*
X181821428Y-102642857D02*
X181821428Y-103214285D01*
X182321428Y-102857142D02*
X181035714Y-102857142D01*
X180892857Y-102928571D01*
X180821428Y-103071428D01*
X180821428Y-103214285D01*
X180821428Y-104357142D02*
X181607142Y-104357142D01*
X181750000Y-104285714D01*
X181821428Y-104142857D01*
X181821428Y-103857142D01*
X181750000Y-103714285D01*
X180892857Y-104357142D02*
X180821428Y-104214285D01*
X180821428Y-103857142D01*
X180892857Y-103714285D01*
X181035714Y-103642857D01*
X181178571Y-103642857D01*
X181321428Y-103714285D01*
X181392857Y-103857142D01*
X181392857Y-104214285D01*
X181464285Y-104357142D01*
X180821428Y-105285714D02*
X180892857Y-105142857D01*
X181035714Y-105071428D01*
X182321428Y-105071428D01*
X180250000Y-107428571D02*
X180321428Y-107357142D01*
X180535714Y-107214285D01*
X180678571Y-107142857D01*
X180892857Y-107071428D01*
X181250000Y-107000000D01*
X181535714Y-107000000D01*
X181892857Y-107071428D01*
X182107142Y-107142857D01*
X182250000Y-107214285D01*
X182464285Y-107357142D01*
X182535714Y-107428571D01*
X180964285Y-108857142D02*
X180892857Y-108785714D01*
X180821428Y-108571428D01*
X180821428Y-108428571D01*
X180892857Y-108214285D01*
X181035714Y-108071428D01*
X181178571Y-108000000D01*
X181464285Y-107928571D01*
X181678571Y-107928571D01*
X181964285Y-108000000D01*
X182107142Y-108071428D01*
X182250000Y-108214285D01*
X182321428Y-108428571D01*
X182321428Y-108571428D01*
X182250000Y-108785714D01*
X182178571Y-108857142D01*
X180250000Y-109357142D02*
X180321428Y-109428571D01*
X180535714Y-109571428D01*
X180678571Y-109642857D01*
X180892857Y-109714285D01*
X181250000Y-109785714D01*
X181535714Y-109785714D01*
X181892857Y-109714285D01*
X182107142Y-109642857D01*
X182250000Y-109571428D01*
X182464285Y-109428571D01*
X182535714Y-109357142D01*
X182178571Y-111571428D02*
X182250000Y-111642857D01*
X182321428Y-111785714D01*
X182321428Y-112142857D01*
X182250000Y-112285714D01*
X182178571Y-112357142D01*
X182035714Y-112428571D01*
X181892857Y-112428571D01*
X181678571Y-112357142D01*
X180821428Y-111500000D01*
X180821428Y-112428571D01*
X182321428Y-113357142D02*
X182321428Y-113500000D01*
X182250000Y-113642857D01*
X182178571Y-113714285D01*
X182035714Y-113785714D01*
X181750000Y-113857142D01*
X181392857Y-113857142D01*
X181107142Y-113785714D01*
X180964285Y-113714285D01*
X180892857Y-113642857D01*
X180821428Y-113500000D01*
X180821428Y-113357142D01*
X180892857Y-113214285D01*
X180964285Y-113142857D01*
X181107142Y-113071428D01*
X181392857Y-113000000D01*
X181750000Y-113000000D01*
X182035714Y-113071428D01*
X182178571Y-113142857D01*
X182250000Y-113214285D01*
X182321428Y-113357142D01*
X182178571Y-114428571D02*
X182250000Y-114500000D01*
X182321428Y-114642857D01*
X182321428Y-115000000D01*
X182250000Y-115142857D01*
X182178571Y-115214285D01*
X182035714Y-115285714D01*
X181892857Y-115285714D01*
X181678571Y-115214285D01*
X180821428Y-114357142D01*
X180821428Y-115285714D01*
X182178571Y-115857142D02*
X182250000Y-115928571D01*
X182321428Y-116071428D01*
X182321428Y-116428571D01*
X182250000Y-116571428D01*
X182178571Y-116642857D01*
X182035714Y-116714285D01*
X181892857Y-116714285D01*
X181678571Y-116642857D01*
X180821428Y-115785714D01*
X180821428Y-116714285D01*
X178406428Y-93892857D02*
X178406428Y-93178571D01*
X179906428Y-93178571D01*
X178406428Y-94392857D02*
X179406428Y-94392857D01*
X179906428Y-94392857D02*
X179835000Y-94321428D01*
X179763571Y-94392857D01*
X179835000Y-94464285D01*
X179906428Y-94392857D01*
X179763571Y-94392857D01*
X178477857Y-95750000D02*
X178406428Y-95607142D01*
X178406428Y-95321428D01*
X178477857Y-95178571D01*
X178549285Y-95107142D01*
X178692142Y-95035714D01*
X179120714Y-95035714D01*
X179263571Y-95107142D01*
X179335000Y-95178571D01*
X179406428Y-95321428D01*
X179406428Y-95607142D01*
X179335000Y-95750000D01*
X178477857Y-96964285D02*
X178406428Y-96821428D01*
X178406428Y-96535714D01*
X178477857Y-96392857D01*
X178620714Y-96321428D01*
X179192142Y-96321428D01*
X179335000Y-96392857D01*
X179406428Y-96535714D01*
X179406428Y-96821428D01*
X179335000Y-96964285D01*
X179192142Y-97035714D01*
X179049285Y-97035714D01*
X178906428Y-96321428D01*
X179406428Y-97678571D02*
X178406428Y-97678571D01*
X179263571Y-97678571D02*
X179335000Y-97750000D01*
X179406428Y-97892857D01*
X179406428Y-98107142D01*
X179335000Y-98250000D01*
X179192142Y-98321428D01*
X178406428Y-98321428D01*
X178477857Y-98964285D02*
X178406428Y-99107142D01*
X178406428Y-99392857D01*
X178477857Y-99535714D01*
X178620714Y-99607142D01*
X178692142Y-99607142D01*
X178835000Y-99535714D01*
X178906428Y-99392857D01*
X178906428Y-99178571D01*
X178977857Y-99035714D01*
X179120714Y-98964285D01*
X179192142Y-98964285D01*
X179335000Y-99035714D01*
X179406428Y-99178571D01*
X179406428Y-99392857D01*
X179335000Y-99535714D01*
X178477857Y-100821428D02*
X178406428Y-100678571D01*
X178406428Y-100392857D01*
X178477857Y-100250000D01*
X178620714Y-100178571D01*
X179192142Y-100178571D01*
X179335000Y-100250000D01*
X179406428Y-100392857D01*
X179406428Y-100678571D01*
X179335000Y-100821428D01*
X179192142Y-100892857D01*
X179049285Y-100892857D01*
X178906428Y-100178571D01*
X178406428Y-102178571D02*
X179906428Y-102178571D01*
X178477857Y-102178571D02*
X178406428Y-102035714D01*
X178406428Y-101750000D01*
X178477857Y-101607142D01*
X178549285Y-101535714D01*
X178692142Y-101464285D01*
X179120714Y-101464285D01*
X179263571Y-101535714D01*
X179335000Y-101607142D01*
X179406428Y-101750000D01*
X179406428Y-102035714D01*
X179335000Y-102178571D01*
X179406428Y-104678571D02*
X178406428Y-104678571D01*
X179406428Y-104035714D02*
X178620714Y-104035714D01*
X178477857Y-104107142D01*
X178406428Y-104250000D01*
X178406428Y-104464285D01*
X178477857Y-104607142D01*
X178549285Y-104678571D01*
X179406428Y-105392857D02*
X178406428Y-105392857D01*
X179263571Y-105392857D02*
X179335000Y-105464285D01*
X179406428Y-105607142D01*
X179406428Y-105821428D01*
X179335000Y-105964285D01*
X179192142Y-106035714D01*
X178406428Y-106035714D01*
X178406428Y-107392857D02*
X179906428Y-107392857D01*
X178477857Y-107392857D02*
X178406428Y-107250000D01*
X178406428Y-106964285D01*
X178477857Y-106821428D01*
X178549285Y-106750000D01*
X178692142Y-106678571D01*
X179120714Y-106678571D01*
X179263571Y-106750000D01*
X179335000Y-106821428D01*
X179406428Y-106964285D01*
X179406428Y-107250000D01*
X179335000Y-107392857D01*
X178477857Y-108678571D02*
X178406428Y-108535714D01*
X178406428Y-108250000D01*
X178477857Y-108107142D01*
X178620714Y-108035714D01*
X179192142Y-108035714D01*
X179335000Y-108107142D01*
X179406428Y-108250000D01*
X179406428Y-108535714D01*
X179335000Y-108678571D01*
X179192142Y-108750000D01*
X179049285Y-108750000D01*
X178906428Y-108035714D01*
X178406428Y-109392857D02*
X179406428Y-109392857D01*
X179120714Y-109392857D02*
X179263571Y-109464285D01*
X179335000Y-109535714D01*
X179406428Y-109678571D01*
X179406428Y-109821428D01*
X178406428Y-111464285D02*
X179906428Y-111464285D01*
X178835000Y-111964285D01*
X179906428Y-112464285D01*
X178406428Y-112464285D01*
X178406428Y-113178571D02*
X179906428Y-113178571D01*
X179906428Y-113678571D02*
X179906428Y-114535714D01*
X178406428Y-114107142D02*
X179906428Y-114107142D01*
X178406428Y-116892857D02*
X178406428Y-116178571D01*
X179906428Y-116178571D01*
X178406428Y-117392857D02*
X179406428Y-117392857D01*
X179906428Y-117392857D02*
X179835000Y-117321428D01*
X179763571Y-117392857D01*
X179835000Y-117464285D01*
X179906428Y-117392857D01*
X179763571Y-117392857D01*
X178477857Y-118750000D02*
X178406428Y-118607142D01*
X178406428Y-118321428D01*
X178477857Y-118178571D01*
X178549285Y-118107142D01*
X178692142Y-118035714D01*
X179120714Y-118035714D01*
X179263571Y-118107142D01*
X179335000Y-118178571D01*
X179406428Y-118321428D01*
X179406428Y-118607142D01*
X179335000Y-118750000D01*
X178477857Y-119964285D02*
X178406428Y-119821428D01*
X178406428Y-119535714D01*
X178477857Y-119392857D01*
X178620714Y-119321428D01*
X179192142Y-119321428D01*
X179335000Y-119392857D01*
X179406428Y-119535714D01*
X179406428Y-119821428D01*
X179335000Y-119964285D01*
X179192142Y-120035714D01*
X179049285Y-120035714D01*
X178906428Y-119321428D01*
X179406428Y-120678571D02*
X178406428Y-120678571D01*
X179263571Y-120678571D02*
X179335000Y-120750000D01*
X179406428Y-120892857D01*
X179406428Y-121107142D01*
X179335000Y-121250000D01*
X179192142Y-121321428D01*
X178406428Y-121321428D01*
X178477857Y-121964285D02*
X178406428Y-122107142D01*
X178406428Y-122392857D01*
X178477857Y-122535714D01*
X178620714Y-122607142D01*
X178692142Y-122607142D01*
X178835000Y-122535714D01*
X178906428Y-122392857D01*
X178906428Y-122178571D01*
X178977857Y-122035714D01*
X179120714Y-121964285D01*
X179192142Y-121964285D01*
X179335000Y-122035714D01*
X179406428Y-122178571D01*
X179406428Y-122392857D01*
X179335000Y-122535714D01*
X178477857Y-123821428D02*
X178406428Y-123678571D01*
X178406428Y-123392857D01*
X178477857Y-123250000D01*
X178620714Y-123178571D01*
X179192142Y-123178571D01*
X179335000Y-123250000D01*
X179406428Y-123392857D01*
X179406428Y-123678571D01*
X179335000Y-123821428D01*
X179192142Y-123892857D01*
X179049285Y-123892857D01*
X178906428Y-123178571D01*
D10*
%TO.C,L1*%
X153347619Y-88633333D02*
X153347619Y-88157142D01*
X154347619Y-88157142D01*
X153347619Y-89490476D02*
X153347619Y-88919047D01*
X153347619Y-89204761D02*
X154347619Y-89204761D01*
X154204761Y-89109523D01*
X154109523Y-89014285D01*
X154061904Y-88919047D01*
D12*
X151173809Y-86817857D02*
X151173809Y-86532142D01*
X151173809Y-86675000D02*
X151673809Y-86675000D01*
X151602380Y-86627380D01*
X151554761Y-86579761D01*
X151530952Y-86532142D01*
D10*
%TO.C,U1*%
X173947619Y-106838095D02*
X173138095Y-106838095D01*
X173042857Y-106885714D01*
X172995238Y-106933333D01*
X172947619Y-107028571D01*
X172947619Y-107219047D01*
X172995238Y-107314285D01*
X173042857Y-107361904D01*
X173138095Y-107409523D01*
X173947619Y-107409523D01*
X172947619Y-108409523D02*
X172947619Y-107838095D01*
X172947619Y-108123809D02*
X173947619Y-108123809D01*
X173804761Y-108028571D01*
X173709523Y-107933333D01*
X173661904Y-107838095D01*
D12*
X168426190Y-109782142D02*
X168426190Y-110067857D01*
X168426190Y-109925000D02*
X167926190Y-109925000D01*
X167997619Y-109972619D01*
X168045238Y-110020238D01*
X168069047Y-110067857D01*
D10*
%TO.C,H0*%
X119238095Y-135952380D02*
X119238095Y-134952380D01*
X119238095Y-135428571D02*
X119809523Y-135428571D01*
X119809523Y-135952380D02*
X119809523Y-134952380D01*
X120476190Y-134952380D02*
X120571428Y-134952380D01*
X120666666Y-135000000D01*
X120714285Y-135047619D01*
X120761904Y-135142857D01*
X120809523Y-135333333D01*
X120809523Y-135571428D01*
X120761904Y-135761904D01*
X120714285Y-135857142D01*
X120666666Y-135904761D01*
X120571428Y-135952380D01*
X120476190Y-135952380D01*
X120380952Y-135904761D01*
X120333333Y-135857142D01*
X120285714Y-135761904D01*
X120238095Y-135571428D01*
X120238095Y-135333333D01*
X120285714Y-135142857D01*
X120333333Y-135047619D01*
X120380952Y-135000000D01*
X120476190Y-134952380D01*
%TO.C,F1*%
X188071428Y-79466666D02*
X188071428Y-79133333D01*
X187547619Y-79133333D02*
X188547619Y-79133333D01*
X188547619Y-79609523D01*
X187547619Y-80514285D02*
X187547619Y-79942857D01*
X187547619Y-80228571D02*
X188547619Y-80228571D01*
X188404761Y-80133333D01*
X188309523Y-80038095D01*
X188261904Y-79942857D01*
D12*
X182192857Y-78726190D02*
X181907142Y-78726190D01*
X182050000Y-78726190D02*
X182050000Y-78226190D01*
X182002380Y-78297619D01*
X181954761Y-78345238D01*
X181907142Y-78369047D01*
D10*
%TO.C,D1*%
X133747619Y-107261904D02*
X134747619Y-107261904D01*
X134747619Y-107500000D01*
X134700000Y-107642857D01*
X134604761Y-107738095D01*
X134509523Y-107785714D01*
X134319047Y-107833333D01*
X134176190Y-107833333D01*
X133985714Y-107785714D01*
X133890476Y-107738095D01*
X133795238Y-107642857D01*
X133747619Y-107500000D01*
X133747619Y-107261904D01*
X133747619Y-108785714D02*
X133747619Y-108214285D01*
X133747619Y-108500000D02*
X134747619Y-108500000D01*
X134604761Y-108404761D01*
X134509523Y-108309523D01*
X134461904Y-108214285D01*
D12*
X129426190Y-109782142D02*
X129426190Y-110067857D01*
X129426190Y-109925000D02*
X128926190Y-109925000D01*
X128997619Y-109972619D01*
X129045238Y-110020238D01*
X129069047Y-110067857D01*
D10*
%TO.C,R1*%
X153347619Y-127233333D02*
X153823809Y-126900000D01*
X153347619Y-126661904D02*
X154347619Y-126661904D01*
X154347619Y-127042857D01*
X154300000Y-127138095D01*
X154252380Y-127185714D01*
X154157142Y-127233333D01*
X154014285Y-127233333D01*
X153919047Y-127185714D01*
X153871428Y-127138095D01*
X153823809Y-127042857D01*
X153823809Y-126661904D01*
X153347619Y-128185714D02*
X153347619Y-127614285D01*
X153347619Y-127900000D02*
X154347619Y-127900000D01*
X154204761Y-127804761D01*
X154109523Y-127709523D01*
X154061904Y-127614285D01*
D12*
X149026190Y-129182142D02*
X149026190Y-129467857D01*
X149026190Y-129325000D02*
X148526190Y-129325000D01*
X148597619Y-129372619D01*
X148645238Y-129420238D01*
X148669047Y-129467857D01*
D13*
%TO.C,L1*%
X152100000Y-87575000D02*
X152100000Y-89675000D01*
X147900000Y-87575000D02*
X147900000Y-89675000D01*
%TO.C,U1*%
X171700000Y-109025000D02*
X171700000Y-106925000D01*
X167500000Y-109025000D02*
X167500000Y-106925000D01*
%TO.C,F1*%
X182950000Y-82000000D02*
X185050000Y-82000000D01*
X182950000Y-77800000D02*
X185050000Y-77800000D01*
%TO.C,D1*%
X128500000Y-109025000D02*
X128500000Y-106925000D01*
X132700000Y-109025000D02*
X132700000Y-106925000D01*
%TO.C,R1*%
X148100000Y-128425000D02*
X148100000Y-126325000D01*
X152300000Y-128425000D02*
X152300000Y-126325000D01*
%TD*%
M02*
