%TF.GenerationSoftware,KiCad,Pcbnew,6.0.2+dfsg-1*%
%TF.CreationDate,2022-10-25T21:14:04-07:00*%
%TF.ProjectId,CX40-Replacement,43583430-2d52-4657-906c-6163656d656e,rev?*%
%TF.SameCoordinates,Original*%
%TF.FileFunction,AssemblyDrawing,Top*%
%FSLAX46Y46*%
G04 Gerber Fmt 4.6, Leading zero omitted, Abs format (unit mm)*
G04 Created by KiCad (PCBNEW 6.0.2+dfsg-1) date 2022-10-25 21:14:04*
%MOMM*%
%LPD*%
G01*
G04 APERTURE LIST*
%ADD10C,0.150000*%
G04 APERTURE END LIST*
D10*
%TO.C,L1*%
X149871428Y-86942857D02*
X149823809Y-87085714D01*
X149776190Y-87133333D01*
X149680952Y-87180952D01*
X149538095Y-87180952D01*
X149442857Y-87133333D01*
X149395238Y-87085714D01*
X149347619Y-86990476D01*
X149347619Y-86609523D01*
X150347619Y-86609523D01*
X150347619Y-86942857D01*
X150300000Y-87038095D01*
X150252380Y-87085714D01*
X150157142Y-87133333D01*
X150061904Y-87133333D01*
X149966666Y-87085714D01*
X149919047Y-87038095D01*
X149871428Y-86942857D01*
X149871428Y-86609523D01*
X150014285Y-88038095D02*
X149347619Y-88038095D01*
X150014285Y-87609523D02*
X149490476Y-87609523D01*
X149395238Y-87657142D01*
X149347619Y-87752380D01*
X149347619Y-87895238D01*
X149395238Y-87990476D01*
X149442857Y-88038095D01*
X150014285Y-88371428D02*
X150014285Y-88752380D01*
X150347619Y-88514285D02*
X149490476Y-88514285D01*
X149395238Y-88561904D01*
X149347619Y-88657142D01*
X149347619Y-88752380D01*
X150014285Y-88942857D02*
X150014285Y-89323809D01*
X150347619Y-89085714D02*
X149490476Y-89085714D01*
X149395238Y-89133333D01*
X149347619Y-89228571D01*
X149347619Y-89323809D01*
X149347619Y-89800000D02*
X149395238Y-89704761D01*
X149442857Y-89657142D01*
X149538095Y-89609523D01*
X149823809Y-89609523D01*
X149919047Y-89657142D01*
X149966666Y-89704761D01*
X150014285Y-89800000D01*
X150014285Y-89942857D01*
X149966666Y-90038095D01*
X149919047Y-90085714D01*
X149823809Y-90133333D01*
X149538095Y-90133333D01*
X149442857Y-90085714D01*
X149395238Y-90038095D01*
X149347619Y-89942857D01*
X149347619Y-89800000D01*
X150014285Y-90561904D02*
X149347619Y-90561904D01*
X149919047Y-90561904D02*
X149966666Y-90609523D01*
X150014285Y-90704761D01*
X150014285Y-90847619D01*
X149966666Y-90942857D01*
X149871428Y-90990476D01*
X149347619Y-90990476D01*
X149347619Y-84433333D02*
X149347619Y-83957142D01*
X150347619Y-83957142D01*
X149347619Y-85290476D02*
X149347619Y-84719047D01*
X149347619Y-85004761D02*
X150347619Y-85004761D01*
X150204761Y-84909523D01*
X150109523Y-84814285D01*
X150061904Y-84719047D01*
%TO.C,U1*%
X169671428Y-105942857D02*
X169623809Y-106085714D01*
X169576190Y-106133333D01*
X169480952Y-106180952D01*
X169338095Y-106180952D01*
X169242857Y-106133333D01*
X169195238Y-106085714D01*
X169147619Y-105990476D01*
X169147619Y-105609523D01*
X170147619Y-105609523D01*
X170147619Y-105942857D01*
X170100000Y-106038095D01*
X170052380Y-106085714D01*
X169957142Y-106133333D01*
X169861904Y-106133333D01*
X169766666Y-106085714D01*
X169719047Y-106038095D01*
X169671428Y-105942857D01*
X169671428Y-105609523D01*
X169814285Y-107038095D02*
X169147619Y-107038095D01*
X169814285Y-106609523D02*
X169290476Y-106609523D01*
X169195238Y-106657142D01*
X169147619Y-106752380D01*
X169147619Y-106895238D01*
X169195238Y-106990476D01*
X169242857Y-107038095D01*
X169814285Y-107371428D02*
X169814285Y-107752380D01*
X170147619Y-107514285D02*
X169290476Y-107514285D01*
X169195238Y-107561904D01*
X169147619Y-107657142D01*
X169147619Y-107752380D01*
X169814285Y-107942857D02*
X169814285Y-108323809D01*
X170147619Y-108085714D02*
X169290476Y-108085714D01*
X169195238Y-108133333D01*
X169147619Y-108228571D01*
X169147619Y-108323809D01*
X169147619Y-108800000D02*
X169195238Y-108704761D01*
X169242857Y-108657142D01*
X169338095Y-108609523D01*
X169623809Y-108609523D01*
X169719047Y-108657142D01*
X169766666Y-108704761D01*
X169814285Y-108800000D01*
X169814285Y-108942857D01*
X169766666Y-109038095D01*
X169719047Y-109085714D01*
X169623809Y-109133333D01*
X169338095Y-109133333D01*
X169242857Y-109085714D01*
X169195238Y-109038095D01*
X169147619Y-108942857D01*
X169147619Y-108800000D01*
X169814285Y-109561904D02*
X169147619Y-109561904D01*
X169719047Y-109561904D02*
X169766666Y-109609523D01*
X169814285Y-109704761D01*
X169814285Y-109847619D01*
X169766666Y-109942857D01*
X169671428Y-109990476D01*
X169147619Y-109990476D01*
X170347619Y-102638095D02*
X169538095Y-102638095D01*
X169442857Y-102685714D01*
X169395238Y-102733333D01*
X169347619Y-102828571D01*
X169347619Y-103019047D01*
X169395238Y-103114285D01*
X169442857Y-103161904D01*
X169538095Y-103209523D01*
X170347619Y-103209523D01*
X169347619Y-104209523D02*
X169347619Y-103638095D01*
X169347619Y-103923809D02*
X170347619Y-103923809D01*
X170204761Y-103828571D01*
X170109523Y-103733333D01*
X170061904Y-103638095D01*
%TO.C,H0*%
X113976190Y-137357142D02*
X113928571Y-137404761D01*
X113785714Y-137452380D01*
X113690476Y-137452380D01*
X113547619Y-137404761D01*
X113452380Y-137309523D01*
X113404761Y-137214285D01*
X113357142Y-137023809D01*
X113357142Y-136880952D01*
X113404761Y-136690476D01*
X113452380Y-136595238D01*
X113547619Y-136500000D01*
X113690476Y-136452380D01*
X113785714Y-136452380D01*
X113928571Y-136500000D01*
X113976190Y-136547619D01*
X114309523Y-136452380D02*
X114976190Y-137452380D01*
X114976190Y-136452380D02*
X114309523Y-137452380D01*
X115785714Y-136785714D02*
X115785714Y-137452380D01*
X115547619Y-136404761D02*
X115309523Y-137119047D01*
X115928571Y-137119047D01*
X116500000Y-136452380D02*
X116595238Y-136452380D01*
X116690476Y-136500000D01*
X116738095Y-136547619D01*
X116785714Y-136642857D01*
X116833333Y-136833333D01*
X116833333Y-137071428D01*
X116785714Y-137261904D01*
X116738095Y-137357142D01*
X116690476Y-137404761D01*
X116595238Y-137452380D01*
X116500000Y-137452380D01*
X116404761Y-137404761D01*
X116357142Y-137357142D01*
X116309523Y-137261904D01*
X116261904Y-137071428D01*
X116261904Y-136833333D01*
X116309523Y-136642857D01*
X116357142Y-136547619D01*
X116404761Y-136500000D01*
X116500000Y-136452380D01*
X117261904Y-137071428D02*
X118023809Y-137071428D01*
X118404761Y-136452380D02*
X118642857Y-137452380D01*
X118833333Y-136738095D01*
X119023809Y-137452380D01*
X119261904Y-136452380D01*
X119642857Y-137452380D02*
X119642857Y-136452380D01*
X120690476Y-137452380D02*
X120357142Y-136976190D01*
X120119047Y-137452380D02*
X120119047Y-136452380D01*
X120500000Y-136452380D01*
X120595238Y-136500000D01*
X120642857Y-136547619D01*
X120690476Y-136642857D01*
X120690476Y-136785714D01*
X120642857Y-136880952D01*
X120595238Y-136928571D01*
X120500000Y-136976190D01*
X120119047Y-136976190D01*
X121119047Y-136928571D02*
X121452380Y-136928571D01*
X121595238Y-137452380D02*
X121119047Y-137452380D01*
X121119047Y-136452380D01*
X121595238Y-136452380D01*
X122023809Y-137071428D02*
X122785714Y-137071428D01*
X123261904Y-137452380D02*
X123261904Y-136452380D01*
X123261904Y-136928571D02*
X123833333Y-136928571D01*
X123833333Y-137452380D02*
X123833333Y-136452380D01*
X124309523Y-136928571D02*
X124642857Y-136928571D01*
X124785714Y-137452380D02*
X124309523Y-137452380D01*
X124309523Y-136452380D01*
X124785714Y-136452380D01*
X125166666Y-137166666D02*
X125642857Y-137166666D01*
X125071428Y-137452380D02*
X125404761Y-136452380D01*
X125738095Y-137452380D01*
X126071428Y-137452380D02*
X126071428Y-136452380D01*
X126309523Y-136452380D01*
X126452380Y-136500000D01*
X126547619Y-136595238D01*
X126595238Y-136690476D01*
X126642857Y-136880952D01*
X126642857Y-137023809D01*
X126595238Y-137214285D01*
X126547619Y-137309523D01*
X126452380Y-137404761D01*
X126309523Y-137452380D01*
X126071428Y-137452380D01*
X119238095Y-138952380D02*
X119238095Y-137952380D01*
X119238095Y-138428571D02*
X119809523Y-138428571D01*
X119809523Y-138952380D02*
X119809523Y-137952380D01*
X120476190Y-137952380D02*
X120571428Y-137952380D01*
X120666666Y-138000000D01*
X120714285Y-138047619D01*
X120761904Y-138142857D01*
X120809523Y-138333333D01*
X120809523Y-138571428D01*
X120761904Y-138761904D01*
X120714285Y-138857142D01*
X120666666Y-138904761D01*
X120571428Y-138952380D01*
X120476190Y-138952380D01*
X120380952Y-138904761D01*
X120333333Y-138857142D01*
X120285714Y-138761904D01*
X120238095Y-138571428D01*
X120238095Y-138333333D01*
X120285714Y-138142857D01*
X120333333Y-138047619D01*
X120380952Y-138000000D01*
X120476190Y-137952380D01*
%TO.C,F1*%
X182342857Y-79528571D02*
X182485714Y-79576190D01*
X182533333Y-79623809D01*
X182580952Y-79719047D01*
X182580952Y-79861904D01*
X182533333Y-79957142D01*
X182485714Y-80004761D01*
X182390476Y-80052380D01*
X182009523Y-80052380D01*
X182009523Y-79052380D01*
X182342857Y-79052380D01*
X182438095Y-79100000D01*
X182485714Y-79147619D01*
X182533333Y-79242857D01*
X182533333Y-79338095D01*
X182485714Y-79433333D01*
X182438095Y-79480952D01*
X182342857Y-79528571D01*
X182009523Y-79528571D01*
X183438095Y-79385714D02*
X183438095Y-80052380D01*
X183009523Y-79385714D02*
X183009523Y-79909523D01*
X183057142Y-80004761D01*
X183152380Y-80052380D01*
X183295238Y-80052380D01*
X183390476Y-80004761D01*
X183438095Y-79957142D01*
X183771428Y-79385714D02*
X184152380Y-79385714D01*
X183914285Y-79052380D02*
X183914285Y-79909523D01*
X183961904Y-80004761D01*
X184057142Y-80052380D01*
X184152380Y-80052380D01*
X184342857Y-79385714D02*
X184723809Y-79385714D01*
X184485714Y-79052380D02*
X184485714Y-79909523D01*
X184533333Y-80004761D01*
X184628571Y-80052380D01*
X184723809Y-80052380D01*
X185200000Y-80052380D02*
X185104761Y-80004761D01*
X185057142Y-79957142D01*
X185009523Y-79861904D01*
X185009523Y-79576190D01*
X185057142Y-79480952D01*
X185104761Y-79433333D01*
X185200000Y-79385714D01*
X185342857Y-79385714D01*
X185438095Y-79433333D01*
X185485714Y-79480952D01*
X185533333Y-79576190D01*
X185533333Y-79861904D01*
X185485714Y-79957142D01*
X185438095Y-80004761D01*
X185342857Y-80052380D01*
X185200000Y-80052380D01*
X185961904Y-79385714D02*
X185961904Y-80052380D01*
X185961904Y-79480952D02*
X186009523Y-79433333D01*
X186104761Y-79385714D01*
X186247619Y-79385714D01*
X186342857Y-79433333D01*
X186390476Y-79528571D01*
X186390476Y-80052380D01*
X179666666Y-79728571D02*
X179333333Y-79728571D01*
X179333333Y-80252380D02*
X179333333Y-79252380D01*
X179809523Y-79252380D01*
X180714285Y-80252380D02*
X180142857Y-80252380D01*
X180428571Y-80252380D02*
X180428571Y-79252380D01*
X180333333Y-79395238D01*
X180238095Y-79490476D01*
X180142857Y-79538095D01*
%TO.C,D1*%
X130471428Y-105942857D02*
X130423809Y-106085714D01*
X130376190Y-106133333D01*
X130280952Y-106180952D01*
X130138095Y-106180952D01*
X130042857Y-106133333D01*
X129995238Y-106085714D01*
X129947619Y-105990476D01*
X129947619Y-105609523D01*
X130947619Y-105609523D01*
X130947619Y-105942857D01*
X130900000Y-106038095D01*
X130852380Y-106085714D01*
X130757142Y-106133333D01*
X130661904Y-106133333D01*
X130566666Y-106085714D01*
X130519047Y-106038095D01*
X130471428Y-105942857D01*
X130471428Y-105609523D01*
X130614285Y-107038095D02*
X129947619Y-107038095D01*
X130614285Y-106609523D02*
X130090476Y-106609523D01*
X129995238Y-106657142D01*
X129947619Y-106752380D01*
X129947619Y-106895238D01*
X129995238Y-106990476D01*
X130042857Y-107038095D01*
X130614285Y-107371428D02*
X130614285Y-107752380D01*
X130947619Y-107514285D02*
X130090476Y-107514285D01*
X129995238Y-107561904D01*
X129947619Y-107657142D01*
X129947619Y-107752380D01*
X130614285Y-107942857D02*
X130614285Y-108323809D01*
X130947619Y-108085714D02*
X130090476Y-108085714D01*
X129995238Y-108133333D01*
X129947619Y-108228571D01*
X129947619Y-108323809D01*
X129947619Y-108800000D02*
X129995238Y-108704761D01*
X130042857Y-108657142D01*
X130138095Y-108609523D01*
X130423809Y-108609523D01*
X130519047Y-108657142D01*
X130566666Y-108704761D01*
X130614285Y-108800000D01*
X130614285Y-108942857D01*
X130566666Y-109038095D01*
X130519047Y-109085714D01*
X130423809Y-109133333D01*
X130138095Y-109133333D01*
X130042857Y-109085714D01*
X129995238Y-109038095D01*
X129947619Y-108942857D01*
X129947619Y-108800000D01*
X130614285Y-109561904D02*
X129947619Y-109561904D01*
X130519047Y-109561904D02*
X130566666Y-109609523D01*
X130614285Y-109704761D01*
X130614285Y-109847619D01*
X130566666Y-109942857D01*
X130471428Y-109990476D01*
X129947619Y-109990476D01*
X129947619Y-103061904D02*
X130947619Y-103061904D01*
X130947619Y-103300000D01*
X130900000Y-103442857D01*
X130804761Y-103538095D01*
X130709523Y-103585714D01*
X130519047Y-103633333D01*
X130376190Y-103633333D01*
X130185714Y-103585714D01*
X130090476Y-103538095D01*
X129995238Y-103442857D01*
X129947619Y-103300000D01*
X129947619Y-103061904D01*
X129947619Y-104585714D02*
X129947619Y-104014285D01*
X129947619Y-104300000D02*
X130947619Y-104300000D01*
X130804761Y-104204761D01*
X130709523Y-104109523D01*
X130661904Y-104014285D01*
%TO.C,R1*%
X150071428Y-125542857D02*
X150023809Y-125685714D01*
X149976190Y-125733333D01*
X149880952Y-125780952D01*
X149738095Y-125780952D01*
X149642857Y-125733333D01*
X149595238Y-125685714D01*
X149547619Y-125590476D01*
X149547619Y-125209523D01*
X150547619Y-125209523D01*
X150547619Y-125542857D01*
X150500000Y-125638095D01*
X150452380Y-125685714D01*
X150357142Y-125733333D01*
X150261904Y-125733333D01*
X150166666Y-125685714D01*
X150119047Y-125638095D01*
X150071428Y-125542857D01*
X150071428Y-125209523D01*
X150214285Y-126638095D02*
X149547619Y-126638095D01*
X150214285Y-126209523D02*
X149690476Y-126209523D01*
X149595238Y-126257142D01*
X149547619Y-126352380D01*
X149547619Y-126495238D01*
X149595238Y-126590476D01*
X149642857Y-126638095D01*
X150214285Y-126971428D02*
X150214285Y-127352380D01*
X150547619Y-127114285D02*
X149690476Y-127114285D01*
X149595238Y-127161904D01*
X149547619Y-127257142D01*
X149547619Y-127352380D01*
X150214285Y-127542857D02*
X150214285Y-127923809D01*
X150547619Y-127685714D02*
X149690476Y-127685714D01*
X149595238Y-127733333D01*
X149547619Y-127828571D01*
X149547619Y-127923809D01*
X149547619Y-128400000D02*
X149595238Y-128304761D01*
X149642857Y-128257142D01*
X149738095Y-128209523D01*
X150023809Y-128209523D01*
X150119047Y-128257142D01*
X150166666Y-128304761D01*
X150214285Y-128400000D01*
X150214285Y-128542857D01*
X150166666Y-128638095D01*
X150119047Y-128685714D01*
X150023809Y-128733333D01*
X149738095Y-128733333D01*
X149642857Y-128685714D01*
X149595238Y-128638095D01*
X149547619Y-128542857D01*
X149547619Y-128400000D01*
X150214285Y-129161904D02*
X149547619Y-129161904D01*
X150119047Y-129161904D02*
X150166666Y-129209523D01*
X150214285Y-129304761D01*
X150214285Y-129447619D01*
X150166666Y-129542857D01*
X150071428Y-129590476D01*
X149547619Y-129590476D01*
X149547619Y-131233333D02*
X150023809Y-130900000D01*
X149547619Y-130661904D02*
X150547619Y-130661904D01*
X150547619Y-131042857D01*
X150500000Y-131138095D01*
X150452380Y-131185714D01*
X150357142Y-131233333D01*
X150214285Y-131233333D01*
X150119047Y-131185714D01*
X150071428Y-131138095D01*
X150023809Y-131042857D01*
X150023809Y-130661904D01*
X149547619Y-132185714D02*
X149547619Y-131614285D01*
X149547619Y-131900000D02*
X150547619Y-131900000D01*
X150404761Y-131804761D01*
X150309523Y-131709523D01*
X150261904Y-131614285D01*
%TD*%
M02*
